<svg width="21" height="19" viewBox="0 0 21 19" fill="none" xmlns="http://www.w3.org/2000/svg">
<path d="M20.8438 8.77332C19.9984 6.91424 18.7602 5.26641 17.2168 3.94658L19.8699 1.25637L18.6317 0L15.7503 2.91912C14.1554 1.98369 12.3425 1.49868 10.5002 1.51457C3.93749 1.51457 0.924786 7.06977 0.156516 8.77332C0.0533847 9.00162 0 9.24978 0 9.50089C0 9.752 0.0533847 10.0002 0.156516 10.2284C1.00191 12.0875 2.24014 13.7354 3.78348 15.0552L1.13129 17.7454L2.36857 19L5.25002 16.0809C6.84487 17.0163 8.65778 17.5013 10.5002 17.4854C17.0628 17.4854 20.0755 11.9302 20.8438 10.2267C20.9467 9.99863 21 9.75079 21 9.5C21 9.24921 20.9467 9.00136 20.8438 8.77332ZM5.25002 9.5C5.24836 8.52277 5.51246 7.56399 6.01327 6.72905C6.51408 5.89412 7.23222 5.21537 8.08874 4.7674C8.94527 4.31944 9.90701 4.1196 10.8683 4.18987C11.8295 4.26013 12.7531 4.59778 13.5374 5.16569L12.2668 6.454C11.7334 6.12784 11.123 5.95401 10.5002 5.95092C9.57188 5.95092 8.68161 6.32484 8.02522 6.99042C7.36883 7.656 7.00007 8.55872 7.00007 9.5C7.00312 10.1316 7.17455 10.7506 7.49621 11.2914L6.22567 12.5797C5.59125 11.6816 5.25007 10.6047 5.25002 9.5ZM10.5002 14.8236C9.41071 14.8236 8.34862 14.4776 7.46295 13.8343L8.73349 12.546C9.26686 12.8722 9.8773 13.046 10.5002 13.0491C11.4284 13.0491 12.3187 12.6752 12.9751 12.0096C13.6315 11.344 14.0002 10.4413 14.0002 9.5C13.9972 8.86843 13.8258 8.24944 13.5041 7.7086L14.7746 6.42029C15.3347 7.21557 15.6677 8.15203 15.737 9.12674C15.8063 10.1014 15.6092 11.0767 15.1674 11.9452C14.7256 12.8137 14.0563 13.5419 13.2329 14.0497C12.4094 14.5575 11.4639 14.8253 10.5002 14.8236Z" fill="#B5B7BD"/>
</svg>
