<svg width="21" height="16" viewBox="0 0 21 16" fill="none" xmlns="http://www.w3.org/2000/svg">
<path d="M20.8438 7.272C20.0755 5.56533 17.0628 0 10.5002 0C3.93749 0 0.924786 5.56533 0.156516 7.272C0.0533847 7.50071 0 7.74932 0 8.00089C0 8.25246 0.0533847 8.50107 0.156516 8.72978C0.924786 10.4347 3.93749 16 10.5002 16C17.0628 16 20.0755 10.4347 20.8438 8.728C20.9467 8.49954 21 8.25125 21 8C21 7.74875 20.9467 7.50046 20.8438 7.272ZM10.5002 13.3333C9.46178 13.3333 8.44672 13.0205 7.58334 12.4345C6.71996 11.8485 6.04704 11.0155 5.64966 10.041C5.25229 9.06644 5.14832 7.99408 5.3509 6.95952C5.55348 5.92495 6.05351 4.97464 6.78775 4.22876C7.522 3.48288 8.45748 2.97493 9.47591 2.76915C10.4943 2.56336 11.55 2.66898 12.5093 3.07264C13.4686 3.47631 14.2886 4.1599 14.8655 5.03696C15.4424 5.91402 15.7503 6.94517 15.7503 8C15.7489 9.41405 15.1953 10.7698 14.211 11.7697C13.2267 12.7696 11.8922 13.3319 10.5002 13.3333Z" fill="#B5B7BD"/>
<path d="M10.5003 11.5551C12.4333 11.5551 14.0003 9.96323 14.0003 7.99956C14.0003 6.03588 12.4333 4.44401 10.5003 4.44401C8.56722 4.44401 7.00018 6.03588 7.00018 7.99956C7.00018 9.96323 8.56722 11.5551 10.5003 11.5551Z" fill="#B5B7BD"/>
</svg>
