<svg width="11" height="16" viewBox="0 0 11 16" fill="none" xmlns="http://www.w3.org/2000/svg">
<path d="M5.5 0C2.45929 0 0 2.504 0 5.6C0 9.8 5.5 16 5.5 16C5.5 16 11 9.8 11 5.6C11 2.504 8.54071 0 5.5 0ZM5.5 7.6C4.97904 7.6 4.47942 7.38929 4.11104 7.01421C3.74267 6.63914 3.53571 6.13043 3.53571 5.6C3.53571 5.06957 3.74267 4.56086 4.11104 4.18579C4.47942 3.81071 4.97904 3.6 5.5 3.6C6.02096 3.6 6.52058 3.81071 6.88896 4.18579C7.25733 4.56086 7.46429 5.06957 7.46429 5.6C7.46429 6.13043 7.25733 6.63914 6.88896 7.01421C6.52058 7.38929 6.02096 7.6 5.5 7.6Z" fill="#070C20"/>
</svg>
