<svg width="63" height="62" viewBox="0 0 63 62" fill="none" xmlns="http://www.w3.org/2000/svg">
<path d="M49.875 12.9167H13.125C9.64531 12.9208 6.30934 14.283 3.84883 16.7044C1.38832 19.1259 0.00416813 22.4089 0 25.8333L0 49.0833C0.00416813 52.5078 1.38832 55.7908 3.84883 58.2123C6.30934 60.6337 9.64531 61.9959 13.125 62H49.875C53.3547 61.9959 56.6907 60.6337 59.1512 58.2123C61.6117 55.7908 62.9958 52.5078 63 49.0833V25.8333C62.9958 22.4089 61.6117 19.1259 59.1512 16.7044C56.6907 14.283 53.3547 12.9208 49.875 12.9167ZM31.5 51.6667C28.3849 51.6667 25.3398 50.7576 22.7498 49.0544C20.1597 47.3513 18.141 44.9305 16.9489 42.0983C15.7568 39.266 15.4449 36.1495 16.0526 33.1428C16.6603 30.1361 18.1604 27.3742 20.3631 25.2065C22.5657 23.0388 25.3721 21.5626 28.4273 20.9645C31.4825 20.3664 34.6493 20.6734 37.5273 21.8465C40.4052 23.0197 42.865 25.0064 44.5956 27.5553C46.3263 30.1043 47.25 33.1011 47.25 36.1667C47.2458 40.2763 45.5851 44.2164 42.6323 47.1223C39.6795 50.0282 35.6759 51.6626 31.5 51.6667Z" fill="#B5B7BD"/>
<path d="M31.5 46.5C37.299 46.5 42 41.8736 42 36.1667C42 30.4598 37.299 25.8334 31.5 25.8334C25.701 25.8334 21 30.4598 21 36.1667C21 41.8736 25.701 46.5 31.5 46.5Z" fill="#B5B7BD"/>
<path d="M46.5133 7.75001L42.8042 3.01734C42.0653 2.08167 41.1198 1.32375 40.0392 0.800975C38.9586 0.278204 37.7712 0.0042962 36.5672 0H26.4242C25.2201 0.0042962 24.0327 0.278204 22.9522 0.800975C21.8716 1.32375 20.926 2.08167 20.1872 3.01734L16.478 7.75001H46.5133Z" fill="#B5B7BD"/>
</svg>
