<svg width="80" height="80" viewBox="0 0 80 80" fill="none" xmlns="http://www.w3.org/2000/svg">
<path d="M63.3333 16.6667H16.6667C12.248 16.672 8.01186 18.4296 4.8874 21.5541C1.76294 24.6785 0.00529286 28.9147 0 33.3333L0 63.3333C0.00529286 67.752 1.76294 71.9881 4.8874 75.1126C8.01186 78.2371 12.248 79.9947 16.6667 80H63.3333C67.752 79.9947 71.9881 78.2371 75.1126 75.1126C78.2371 71.9881 79.9947 67.752 80 63.3333V33.3333C79.9947 28.9147 78.2371 24.6785 75.1126 21.5541C71.9881 18.4296 67.752 16.672 63.3333 16.6667ZM40 66.6667C36.0444 66.6667 32.1776 65.4937 28.8886 63.2961C25.5996 61.0984 23.0362 57.9749 21.5224 54.3203C20.0087 50.6658 19.6126 46.6445 20.3843 42.7649C21.156 38.8853 23.0608 35.3216 25.8579 32.5245C28.6549 29.7275 32.2186 27.8227 36.0982 27.051C39.9778 26.2793 43.9991 26.6753 47.6537 28.1891C51.3082 29.7028 54.4318 32.2663 56.6294 35.5553C58.827 38.8443 60 42.7111 60 46.6667C59.9947 51.9694 57.8859 57.0534 54.1363 60.803C50.3867 64.5525 45.3027 66.6614 40 66.6667Z" fill="#B5B7BD"/>
<path d="M40 60C47.3638 60 53.3333 54.0305 53.3333 46.6667C53.3333 39.3029 47.3638 33.3334 40 33.3334C32.6362 33.3334 26.6667 39.3029 26.6667 46.6667C26.6667 54.0305 32.6362 60 40 60Z" fill="#B5B7BD"/>
<path d="M59.0645 10L54.3545 3.89334C53.4162 2.68602 52.2156 1.70806 50.8434 1.03352C49.4712 0.358973 47.9635 0.00554348 46.4345 0H33.5545C32.0255 0.00554348 30.5178 0.358973 29.1456 1.03352C27.7734 1.70806 26.5727 2.68602 25.6345 3.89334L20.9245 10H59.0645Z" fill="#B5B7BD"/>
</svg>
