<svg width="12" height="16" viewBox="0 0 12 16" fill="none" xmlns="http://www.w3.org/2000/svg">
<path d="M6.00023 7.96087C7.84118 7.96087 9.33357 6.40262 9.33357 4.48043C9.33357 2.55824 7.84118 1 6.00023 1C4.15928 1 2.6669 2.55824 2.6669 4.48043C2.6669 6.40262 4.15928 7.96087 6.00023 7.96087Z" fill="#070C20"/>
<path d="M6 10.4262C3.23858 10.4262 1 11.9844 1 13.9066C1 15.8288 3.23858 14.6317 6 14.6317C8.76142 14.6317 11 15.8288 11 13.9066C11 11.9844 8.76142 10.4262 6 10.4262Z" fill="#070C20"/>
<path d="M6.00023 7.96087C7.84118 7.96087 9.33357 6.40262 9.33357 4.48043C9.33357 2.55824 7.84118 1 6.00023 1C4.15928 1 2.6669 2.55824 2.6669 4.48043C2.6669 6.40262 4.15928 7.96087 6.00023 7.96087Z" stroke="#070C20" stroke-width="2" stroke-linecap="round" stroke-linejoin="round"/>
<path d="M6 10.4262C3.23858 10.4262 1 11.9844 1 13.9066C1 15.8288 3.23858 14.6317 6 14.6317C8.76142 14.6317 11 15.8288 11 13.9066C11 11.9844 8.76142 10.4262 6 10.4262Z" stroke="#070C20" stroke-width="2" stroke-linecap="round" stroke-linejoin="round"/>
</svg>
