<svg width="20" height="20" viewBox="0 0 20 20" fill="none" xmlns="http://www.w3.org/2000/svg">
<path d="M10 19C11.1821 19.0015 12.3529 18.7694 13.445 18.317C14.5372 17.8646 15.5291 17.2009 16.3639 16.3639C17.2009 15.5291 17.8646 14.5372 18.317 13.445C18.7694 12.3529 19.0015 11.1821 19 10C19.0015 8.81788 18.7694 7.64712 18.317 6.55499C17.8646 5.46287 17.2009 4.4709 16.3639 3.63611C15.5291 2.79912 14.5372 2.13536 13.445 1.68297C12.3529 1.23057 11.1821 0.998476 10 1.00001C8.81788 0.998501 7.64712 1.23061 6.55499 1.683C5.46287 2.13539 4.4709 2.79914 3.63611 3.63611C2.79914 4.4709 2.13539 5.46287 1.683 6.55499C1.23061 7.64712 0.998501 8.81788 1.00001 10C0.998476 11.1821 1.23057 12.3529 1.68297 13.445C2.13536 14.5372 2.79912 15.5291 3.63611 16.3639C4.4709 17.2009 5.46287 17.8646 6.55499 18.317C7.64712 18.7694 8.81788 19.0015 10 19Z" stroke="#B5B7BD" stroke-width="2" stroke-linejoin="round"/>
<path d="M10.0008 12.0809V10.2809C10.5348 10.2809 11.0568 10.1225 11.5008 9.82582C11.9448 9.52914 12.2909 9.10746 12.4953 8.6141C12.6996 8.12074 12.7531 7.57786 12.6489 7.05411C12.5447 6.53037 12.2876 6.04927 11.91 5.67167C11.5324 5.29407 11.0513 5.03692 10.5275 4.93274C10.0038 4.82856 9.46089 4.88203 8.96753 5.08639C8.47417 5.29074 8.05249 5.63681 7.75581 6.08082C7.45913 6.52483 7.30078 7.04685 7.30078 7.58086" stroke="#B5B7BD" stroke-width="2" stroke-linecap="round" stroke-linejoin="round"/>
<path d="M10.0884 15.0942C10.0649 15.1177 10.0332 15.1309 10 15.1309C9.96685 15.1309 9.93505 15.1177 9.91161 15.0942C9.88817 15.0708 9.875 15.039 9.875 15.0059C9.875 14.9727 9.88817 14.9409 9.91161 14.9175C9.93505 14.894 9.96685 14.8809 10 14.8809C10.0332 14.8809 10.0649 14.894 10.0884 14.9175L10.7955 14.2104L10.0884 14.9175C10.1118 14.9409 10.125 14.9727 10.125 15.0059C10.125 15.039 10.1118 15.0708 10.0884 15.0942Z" fill="#B5B7BD" stroke="#B5B7BD" stroke-width="2"/>
</svg>
