<svg width="110" height="110" viewBox="0 0 110 110" fill="none" xmlns="http://www.w3.org/2000/svg">
<path d="M87.0833 22.9167H22.9167C16.841 22.924 11.0163 25.3407 6.72017 29.6369C2.42404 33.933 0.00727768 39.7577 0 45.8334L0 87.0833C0.00727768 93.159 2.42404 98.9837 6.72017 103.28C11.0163 107.576 16.841 109.993 22.9167 110H87.0833C93.159 109.993 98.9837 107.576 103.28 103.28C107.576 98.9837 109.993 93.159 110 87.0833V45.8334C109.993 39.7577 107.576 33.933 103.28 29.6369C98.9837 25.3407 93.159 22.924 87.0833 22.9167ZM55 91.6667C49.561 91.6667 44.2442 90.0538 39.7218 87.0321C35.1995 84.0103 31.6747 79.7154 29.5933 74.6905C27.5119 69.6655 26.9673 64.1362 28.0284 58.8017C29.0895 53.4672 31.7086 48.5672 35.5546 44.7213C39.4005 40.8753 44.3005 38.2562 49.635 37.1951C54.9695 36.134 60.4988 36.6786 65.5238 38.76C70.5488 40.8414 74.8437 44.3662 77.8654 48.8885C80.8872 53.4109 82.5 58.7277 82.5 64.1667C82.4927 71.4579 79.5931 78.4484 74.4374 83.6041C69.2817 88.7598 62.2912 91.6594 55 91.6667Z" fill="#B5B7BD"/>
<path d="M55 82.5C65.1252 82.5 73.3333 74.2919 73.3333 64.1667C73.3333 54.0415 65.1252 45.8334 55 45.8334C44.8748 45.8334 36.6667 54.0415 36.6667 64.1667C36.6667 74.2919 44.8748 82.5 55 82.5Z" fill="#B5B7BD"/>
<path d="M81.2137 13.75L74.7374 5.35334C73.4473 3.69328 71.7964 2.34858 69.9096 1.42108C68.0229 0.493588 65.9498 0.00762229 63.8474 0H46.1374C44.035 0.00762229 41.9619 0.493588 40.0752 1.42108C38.1884 2.34858 36.5375 3.69328 35.2474 5.35334L28.7712 13.75H81.2137Z" fill="#B5B7BD"/>
</svg>
