<svg width="112" height="112" viewBox="0 0 112 112" fill="none" xmlns="http://www.w3.org/2000/svg">
<circle cx="56" cy="56" r="56" fill="#ECECEC"/>
<path d="M68.8333 43.1667H43.1667C40.7364 43.1696 38.4065 44.1363 36.6881 45.8547C34.9696 47.5732 34.0029 49.9031 34 52.3333V68.8333C34.0029 71.2636 34.9696 73.5935 36.6881 75.3119C38.4065 77.0304 40.7364 77.9971 43.1667 78H68.8333C71.2636 77.9971 73.5935 77.0304 75.3119 75.3119C77.0304 73.5935 77.9971 71.2636 78 68.8333V52.3333C77.9971 49.9031 77.0304 47.5732 75.3119 45.8547C73.5935 44.1363 71.2636 43.1696 68.8333 43.1667ZM56 70.6667C53.8244 70.6667 51.6977 70.0215 49.8887 68.8128C48.0798 67.6041 46.6699 65.8862 45.8373 63.8762C45.0048 61.8662 44.7869 59.6545 45.2114 57.5207C45.6358 55.3869 46.6834 53.4269 48.2218 51.8885C49.7602 50.3501 51.7202 49.3025 53.854 48.878C55.9878 48.4536 58.1995 48.6714 60.2095 49.504C62.2195 50.3366 63.9375 51.7465 65.1462 53.5554C66.3549 55.3643 67 57.4911 67 59.6667C66.9971 62.5832 65.8372 65.3794 63.775 67.4416C61.7127 69.5039 58.9165 70.6638 56 70.6667Z" fill="#B5B7BD"/>
<path d="M56 67C60.0501 67 63.3333 63.7168 63.3333 59.6667C63.3333 55.6166 60.0501 52.3334 56 52.3334C51.9499 52.3334 48.6667 55.6166 48.6667 59.6667C48.6667 63.7168 51.9499 67 56 67Z" fill="#B5B7BD"/>
<path d="M66.4855 39.5L63.895 36.1413C63.3789 35.4773 62.7186 34.9394 61.9639 34.5684C61.2092 34.1974 60.3799 34.003 59.539 34H52.455C51.614 34.003 50.7848 34.1974 50.0301 34.5684C49.2754 34.9394 48.615 35.4773 48.099 36.1413L45.5085 39.5H66.4855Z" fill="#B5B7BD"/>
</svg>
