<svg width="61" height="61" viewBox="0 0 61 61" fill="none" xmlns="http://www.w3.org/2000/svg">
<circle cx="30.5" cy="30.5" r="30.5" fill="#ECECEC"/>
<path d="M37.2083 23.7917H23.7917C22.5213 23.7932 21.3034 24.2985 20.4051 25.1968C19.5068 26.0951 19.0015 27.313 19 28.5833V37.2083C19.0015 38.4787 19.5068 39.6966 20.4051 40.5949C21.3034 41.4932 22.5213 41.9985 23.7917 42H37.2083C38.4787 41.9985 39.6966 41.4932 40.5949 40.5949C41.4932 39.6966 41.9985 38.4787 42 37.2083V28.5833C41.9985 27.313 41.4932 26.0951 40.5949 25.1968C39.6966 24.2985 38.4787 23.7932 37.2083 23.7917ZM30.5 38.1667C29.3628 38.1667 28.2511 37.8294 27.3055 37.1976C26.3599 36.5658 25.6229 35.6678 25.1877 34.6171C24.7525 33.5664 24.6386 32.4103 24.8605 31.2949C25.0823 30.1795 25.63 29.155 26.4341 28.3508C27.2383 27.5467 28.2628 26.999 29.3782 26.7772C30.4936 26.5553 31.6498 26.6692 32.7004 27.1044C33.7511 27.5396 34.6491 28.2766 35.2809 29.2221C35.9128 30.1677 36.25 31.2794 36.25 32.4167C36.2485 33.9412 35.6422 35.4028 34.5642 36.4809C33.4862 37.5589 32.0245 38.1651 30.5 38.1667Z" fill="#B5B7BD"/>
<path d="M30.5 36.25C32.6171 36.25 34.3333 34.5338 34.3333 32.4167C34.3333 30.2996 32.6171 28.5833 30.5 28.5833C28.3829 28.5833 26.6667 30.2996 26.6667 32.4167C26.6667 34.5338 28.3829 36.25 30.5 36.25Z" fill="#B5B7BD"/>
<path d="M35.981 21.875L34.6269 20.1193C34.3572 19.7722 34.012 19.4911 33.6175 19.2971C33.223 19.1032 32.7895 19.0016 32.3499 19H28.6469C28.2073 19.0016 27.7739 19.1032 27.3794 19.2971C26.9849 19.4911 26.6397 19.7722 26.3699 20.1193L25.0158 21.875H35.981Z" fill="#B5B7BD"/>
</svg>
